<?xml version="1.0" standalone="no"?>
<!DOCTYPE svg PUBLIC "-//W3C//DTD SVG 20010904//EN"
 "http://www.w3.org/TR/2001/REC-SVG-20010904/DTD/svg10.dtd">
<svg version="1.0" xmlns="http://www.w3.org/2000/svg"
 width="440.000000pt" height="440.000000pt" viewBox="0 0 440.000000 440.000000"
 preserveAspectRatio="xMidYMid meet">

<g transform="translate(0.000000,440.000000) scale(0.100000,-0.100000)"
fill="#000000" stroke="none">
<path d="M2267 3863 c-9 -15 -66 -249 -81 -332 -31 -166 -46 -328 -46 -506 0
-259 19 -369 110 -629 85 -244 122 -462 123 -711 0 -169 -15 -304 -49 -414 -7
-25 -11 -47 -9 -49 7 -7 125 37 163 60 18 11 34 19 35 17 60 -93 85 -127 119
-160 70 -68 70 -68 131 5 141 172 231 438 256 754 17 213 55 348 156 557 63
128 165 295 250 405 l44 57 -48 6 c-90 11 -225 -19 -328 -72 -48 -24 -42 -33
-68 99 -24 118 -67 247 -124 366 -133 279 -325 466 -545 533 -75 23 -83 24
-89 14z"/>
<path d="M1954 3836 c-295 -110 -545 -467 -633 -904 -26 -130 -44 -327 -40
-439 3 -59 0 -89 -6 -85 -5 3 -30 21 -54 40 -101 77 -229 122 -345 122 -66 0
-79 -7 -51 -30 24 -20 150 -210 198 -300 96 -178 142 -330 157 -515 24 -280
103 -506 226 -643 l41 -46 57 56 c66 67 117 166 142 274 l16 74 56 -49 c105
-90 252 -167 332 -173 33 -3 34 -2 52 57 45 143 53 204 52 410 0 268 -23 396
-130 710 -80 240 -97 349 -97 630 -1 259 12 378 69 643 19 89 37 169 40 177 8
20 -9 18 -82 -9z"/>
<path d="M3572 2787 c-135 -169 -283 -435 -337 -602 -28 -86 -49 -208 -64
-375 -25 -272 -114 -531 -245 -713 -31 -43 -56 -80 -56 -83 0 -10 161 -2 220
12 346 81 681 490 781 954 32 147 32 388 1 505 -34 124 -86 220 -162 297 -36
38 -71 68 -77 68 -6 0 -34 -28 -61 -63z"/>
<path d="M613 2459 c-350 -348 -87 -1228 429 -1436 89 -36 238 -57 252 -35 2
4 -20 43 -50 87 -94 140 -162 335 -184 526 -5 49 -15 129 -20 178 -18 158 -95
349 -213 529 -71 108 -143 202 -155 202 -4 0 -31 -23 -59 -51z"/>
</g>
</svg>
